<svg xmlns="http://www.w3.org/2000/svg" viewBox="0 0 400 400" width="400" height="400" role="img" aria-label="OnlineJourno"><title>OnlineJourno</title><defs><linearGradient id="g-purple" x1="0" y1="0" x2="0" y2="1"><stop offset="0" stop-color="#7C3AED"/><stop offset="1" stop-color="#A21CAF"/></linearGradient><linearGradient id="g-red" x1="0" y1="0" x2="0" y2="1"><stop offset="0" stop-color="#DC2626"/><stop offset="1" stop-color="#E11D48"/></linearGradient><linearGradient id="g-orange" x1="0" y1="0" x2="0" y2="1"><stop offset="0" stop-color="#F59E0B"/><stop offset="1" stop-color="#EA580C"/></linearGradient></defs><path d="M200.0 58.0L326.0 330.0M200.0 58.0L290.0 330.0M200.0 58.0L254.0 330.0M200.0 58.0L218.0 330.0M200.0 58.0L182.0 330.0M200.0 58.0L146.0 330.0M200.0 58.0L110.0 330.0M200.0 58.0L74.0 330.0" stroke="url(#g-purple)" stroke-width="2.1" stroke-linecap="round" fill="none"/><path d="M344.0 330.0L65.0 313.0M344.0 330.0L83.0 279.0M344.0 330.0L101.0 245.0M344.0 330.0L119.0 211.0M344.0 330.0L137.0 177.0M344.0 330.0L155.0 143.0M344.0 330.0L173.0 109.0M344.0 330.0L191.0 75.0" stroke="url(#g-red)" stroke-width="2.1" stroke-linecap="round" fill="none"/><path d="M56.0 330.0L209.0 75.0M56.0 330.0L227.0 109.0M56.0 330.0L245.0 143.0M56.0 330.0L263.0 177.0M56.0 330.0L281.0 211.0M56.0 330.0L299.0 245.0M56.0 330.0L317.0 279.0M56.0 330.0L335.0 313.0" stroke="url(#g-orange)" stroke-width="2.1" stroke-linecap="round" fill="none"/></svg>
